<svg xmlns="http://www.w3.org/2000/svg" xmlns:xlink="http://www.w3.org/1999/xlink" width="500" zoomAndPan="magnify" viewBox="0 0 375 374.999991" height="500" preserveAspectRatio="xMidYMid meet" version="1.0"><defs><clipPath id="a3f75b1259"><path d="M 41 13.164062 L 312 13.164062 L 312 361.914062 L 41 361.914062 Z M 41 13.164062 " clip-rule="nonzero"/></clipPath></defs><g clip-path="url(#a3f75b1259)"><path fill="#00bf63" d="M 164.203125 13.164062 L 221.273438 13.164062 L 221.273438 277.0625 C 192.03125 282.617188 170.609375 284.835938 147.183594 284.835938 C 77.578125 284.835938 41.300781 253.367188 41.300781 193.019531 C 41.300781 134.890625 79.808594 97.136719 139.40625 97.136719 C 148.667969 97.136719 155.75 97.871094 164.210938 100.097656 Z M 164.203125 146 C 157.539062 143.78125 151.988281 143.042969 144.953125 143.042969 C 116.078125 143.042969 99.410156 160.8125 99.410156 191.910156 C 99.410156 222.269531 115.328125 238.925781 144.628906 238.925781 C 150.917969 238.925781 156.101562 238.554688 164.238281 237.453125 Z M 311.910156 101.203125 L 311.910156 233.367188 C 311.910156 278.914062 308.578125 300.75 298.585938 319.625 C 289.324219 337.765625 277.109375 349.242188 251.941406 361.832031 L 198.996094 336.660156 C 224.167969 324.816406 236.386719 314.457031 244.214844 298.527344 C 252.359375 282.183594 254.949219 263.355469 254.949219 213.757812 L 254.949219 101.203125 Z M 254.898438 13.46875 L 311.910156 13.46875 L 311.910156 71.960938 L 254.898438 71.960938 Z M 254.898438 13.46875 " fill-opacity="1" fill-rule="nonzero"/></g></svg>