<svg xmlns="http://www.w3.org/2000/svg" xmlns:xlink="http://www.w3.org/1999/xlink" width="500" zoomAndPan="magnify" viewBox="0 0 375 374.999991" height="500" preserveAspectRatio="xMidYMid meet" version="1.0"><defs><clipPath id="98bf0742a9"><path d="M 5.527344 5.351562 L 369.277344 5.351562 L 369.277344 369.851562 L 5.527344 369.851562 Z M 5.527344 5.351562 " clip-rule="nonzero"/></clipPath></defs><g clip-path="url(#98bf0742a9)"><path fill="#ffffff" d="M 175.582031 5.636719 C 174.796875 5.707031 172.308594 5.957031 170.066406 6.132812 C 118.382812 10.792969 69.96875 38.683594 39.304688 81.546875 C 22.230469 105.378906 11.3125 132.414062 7.183594 161.046875 C 5.726562 171.042969 5.550781 173.996094 5.550781 187.550781 C 5.550781 201.101562 5.726562 204.054688 7.183594 214.050781 C 17.074219 282.382812 65.699219 339.796875 131.648438 361.066406 C 143.460938 364.875 155.910156 367.46875 170.066406 369.035156 C 175.582031 369.640625 199.414062 369.640625 204.929688 369.035156 C 229.367188 366.332031 250.066406 360.285156 270.488281 349.863281 C 273.617188 348.261719 274.222656 347.835938 273.792969 347.480469 C 273.511719 347.265625 260.171875 329.375 244.164062 307.746094 L 215.066406 268.4375 L 178.605469 214.476562 C 158.542969 184.808594 142.039062 160.550781 141.894531 160.550781 C 141.753906 160.515625 141.609375 184.488281 141.539062 213.765625 C 141.433594 265.023438 141.398438 267.085938 140.757812 268.296875 C 139.832031 270.039062 139.121094 270.75 137.625 271.535156 C 136.488281 272.101562 135.492188 272.210938 130.121094 272.210938 L 123.96875 272.210938 L 122.332031 271.179688 C 121.261719 270.503906 120.480469 269.613281 119.949219 268.582031 L 119.199219 266.980469 L 119.269531 195.660156 L 119.378906 124.300781 L 120.480469 122.914062 C 121.050781 122.167969 122.257812 121.207031 123.113281 120.746094 C 124.570312 120.035156 125.140625 119.964844 131.292969 119.964844 C 138.550781 119.964844 139.761719 120.246094 141.644531 122.3125 C 142.179688 122.878906 161.921875 152.617188 185.542969 188.4375 C 209.160156 224.257812 241.460938 273.171875 257.324219 297.179688 L 286.136719 340.828125 L 287.597656 339.867188 C 300.507812 331.472656 314.167969 319.519531 324.980469 307.070312 C 347.996094 280.640625 362.832031 248.410156 367.808594 214.050781 C 369.269531 204.054688 369.445312 201.101562 369.445312 187.550781 C 369.445312 173.996094 369.269531 171.042969 367.808594 161.046875 C 357.921875 92.714844 309.296875 35.300781 243.34375 14.03125 C 231.714844 10.261719 219.335938 7.664062 205.460938 6.097656 C 202.046875 5.742188 178.535156 5.351562 175.582031 5.636719 Z M 250.066406 115.695312 C 251.777344 116.546875 253.164062 118.183594 253.660156 119.890625 C 253.945312 120.816406 254.015625 140.59375 253.945312 185.164062 L 253.839844 249.125 L 242.5625 231.835938 L 231.25 214.546875 L 231.25 168.054688 C 231.25 137.996094 231.394531 121.101562 231.605469 120.28125 C 232.175781 118.292969 233.421875 116.726562 235.128906 115.800781 C 236.585938 115.054688 237.121094 114.984375 242.703125 114.984375 C 247.96875 114.984375 248.894531 115.054688 250.066406 115.695312 Z M 250.066406 115.695312 " fill-opacity="1" fill-rule="nonzero"/></g><path fill="#ffffff" d="M 284.359375 341.609375 C 283.113281 342.390625 282.722656 342.925781 283.824219 342.320312 C 284.609375 341.859375 285.890625 340.898438 285.675781 340.863281 C 285.570312 340.863281 284.964844 341.21875 284.359375 341.609375 Z M 281.90625 343.210938 C 281.265625 343.707031 281.265625 343.742188 282.046875 343.351562 C 282.472656 343.140625 282.828125 342.890625 282.828125 342.820312 C 282.828125 342.535156 282.652344 342.605469 281.90625 343.210938 Z M 280.125 344.277344 C 279.484375 344.777344 279.484375 344.8125 280.269531 344.421875 C 280.695312 344.207031 281.050781 343.957031 281.050781 343.886719 C 281.050781 343.601562 280.875 343.671875 280.125 344.277344 Z M 278.347656 345.34375 C 277.707031 345.84375 277.707031 345.878906 278.488281 345.488281 C 278.917969 345.273438 279.273438 345.023438 279.273438 344.953125 C 279.273438 344.667969 279.09375 344.738281 278.347656 345.34375 Z M 275.644531 346.769531 C 274.292969 347.480469 274.363281 347.765625 275.714844 347.085938 C 276.320312 346.769531 276.78125 346.449219 276.78125 346.375 C 276.78125 346.128906 276.746094 346.164062 275.644531 346.769531 Z M 275.644531 346.769531 " fill-opacity="1" fill-rule="nonzero"/></svg>